<?xml version="1.0" encoding="utf-8"?>
<!-- Generator: Adobe Illustrator 21.0.0, SVG Export Plug-In . SVG Version: 6.00 Build 0)  -->
<svg version="1.1" id="圖層_1" xmlns="http://www.w3.org/2000/svg" xmlns:xlink="http://www.w3.org/1999/xlink" x="0px" y="0px"
	 viewBox="0 0 173 203.6" style="enable-background:new 0 0 173 203.6;" xml:space="preserve">
<path d="M167.1,127.5c-2.1-6.5-4.4-12.9-6.9-19.2l-9.3-22.9c0-0.3,0.1-4.8,0.1-7.1C151.1,39.3,132.4,0,86.5,0S22,39.3,22,78.4
	c0,2.3,0.1,6.8,0.1,7.1l-9.3,22.9c-2.5,6.5-5,13.4-6.9,19.2c-8.8,27.9-5.9,39.4-3.8,39.6c4.6,0.5,18-21,18-21
	c0,12.5,6.5,28.7,20.5,40.5c-5.2,1.6-11.7,4.1-15.8,7.1c-3.7,2.7-3.2,5.5-2.6,6.6c2.9,4.9,50.4,3.1,64.2,1.6
	c13.7,1.5,61.2,3.3,64.1-1.6c0.7-1.1,1.1-3.9-2.6-6.6c-4.1-3-10.6-5.5-15.8-7.1c14-11.7,20.5-28,20.5-40.5c0,0,13.4,21.5,18,21
	C173,166.9,175.8,155.4,167.1,127.5"/>
</svg>
