<?xml version="1.0" encoding="utf-8"?>
<!-- Generator: Adobe Illustrator 21.0.0, SVG Export Plug-In . SVG Version: 6.00 Build 0)  -->
<svg version="1.1" id="圖層_1" xmlns="http://www.w3.org/2000/svg" xmlns:xlink="http://www.w3.org/1999/xlink" x="0px" y="0px"
	 viewBox="0 0 200.4 203.2" style="enable-background:new 0 0 200.4 203.2;" xml:space="preserve">
<g id="_x37_935ec95c421cee6d86eb22ecd12cc09">
	<path d="M194.6,123.2c1.4-6.6,2.2-13.5,2.2-20.5c0-52.8-42.8-95.6-95.6-95.6c-5.6,0-11,0.5-16.3,1.4C76.4,3.1,66.3,0,55.4,0
		C24.8,0,0,24.8,0,55.4c0,10.2,2.8,19.8,7.6,28c-1.3,6.2-1.9,12.6-1.9,19.2c0,52.8,42.8,95.6,95.6,95.6c6,0,11.8-0.6,17.5-1.6
		c7.8,4.2,16.7,6.6,26.2,6.6c30.6,0,55.4-24.8,55.4-55.4C200.4,138.9,198.3,130.6,194.6,123.2z M150.3,148.3
		c-4.4,6.3-10.9,11.2-19.4,14.7c-8.4,3.5-18.4,5.2-29.9,5.2c-13.7,0-25.2-2.4-34.2-7.2c-6.4-3.5-11.7-8.2-15.7-14
		c-4.1-5.9-6.1-11.7-6.1-17.3c0-3.5,1.3-6.5,4-9c2.6-2.5,6-3.7,10-3.7c3.3,0,6.1,1,8.4,2.9c2.2,1.9,4.1,4.6,5.6,8.2
		c1.7,3.9,3.5,7.2,5.5,9.7c1.9,2.5,4.6,4.6,8,6.2c3.5,1.6,8.1,2.5,13.9,2.5c7.9,0,14.4-1.7,19.3-5c4.8-3.2,7.1-7.1,7.1-11.9
		c0-3.8-1.2-6.7-3.7-9.1c-2.6-2.4-6-4.3-10.2-5.6c-4.3-1.3-10.2-2.8-17.5-4.3c-9.9-2.1-18.3-4.6-25-7.5c-6.9-2.9-12.4-7-16.4-12
		c-4.1-5.1-6.2-11.6-6.2-19.1c0-7.2,2.2-13.7,6.5-19.3c4.3-5.6,10.5-9.9,18.5-12.9c7.9-2.9,17.4-4.4,28-4.4c8.5,0,16,1,22.3,2.9
		c6.3,2,11.6,4.6,15.8,7.9c4.2,3.3,7.3,6.8,9.3,10.4c2,3.7,3,7.4,3,10.9c0,3.4-1.3,6.5-3.9,9.2c-2.6,2.7-5.9,4.1-9.8,4.1
		c-3.5,0-6.3-0.9-8.2-2.6c-1.8-1.6-3.6-4-5.7-7.6c-2.4-4.5-5.3-8.1-8.6-10.6c-3.2-2.4-8.6-3.7-16-3.7c-6.9,0-12.4,1.4-16.6,4.1
		c-4,2.6-5.9,5.6-5.9,9.2c0,2.2,0.6,4,1.9,5.6c1.4,1.7,3.3,3.1,5.7,4.3c2.5,1.3,5.1,2.3,7.7,3c2.7,0.7,7.1,1.8,13.2,3.2
		c7.7,1.7,14.8,3.5,21.1,5.5c6.4,2,11.9,4.5,16.3,7.5c4.6,3,8.2,6.8,10.8,11.4c2.6,4.6,3.9,10.2,3.9,16.8
		C156.9,134.9,154.7,142.1,150.3,148.3z"/>
</g>
</svg>
