<svg xmlns="http://www.w3.org/2000/svg" viewBox="0 0 317.27 68"><defs><style>.cls-1{fill:#1d2088;}.cls-1,.cls-2,.cls-4,.cls-5{fill-rule:evenodd;}.cls-2{fill:#e60012;}.cls-3{fill:#094;}.cls-4{fill:#fff;}.cls-5,.cls-6{fill:#686768;}</style></defs><title>資產 1</title><g id="圖層_2" data-name="圖層 2"><g id="圖層_1-2" data-name="圖層 1"><path class="cls-1" d="M26,6.6l9.18-.26L31.27,16.75Q40.44,5,58,6.58V8.86c-25,3.35-27.44,33.2-.62,36.37l-.08,2.86-33.38,0,3.8-10.39-4.29-.08-3.7,9.85H1.87Z"/><path class="cls-1" d="M112,7.2h8L93.32,42.12C87.52,47.9,78.41,48.8,67,47.55V46c24.49-5.06,26.36-30.7,0-37.23L67,6.46c10.29-.73,19.46.7,24.63,9.82,3.66,3.29,7.44,3.42,11.5.22Z"/><path class="cls-1" d="M97.33,0A6.67,6.67,0,1,1,90.7,6.67,6.67,6.67,0,0,1,97.33,0Z"/><path class="cls-2" d="M47.46,32.73l4.59-.35a8.23,8.23,0,0,0,1.52,4,8.24,8.24,0,0,0,3.7,2.52,17.14,17.14,0,0,0,10.57.24,7,7,0,0,0,3.18-2,4.36,4.36,0,0,0,1-2.78,3.89,3.89,0,0,0-1-2.67,7.54,7.54,0,0,0-3.3-1.91c-1-.33-3.18-.86-6.56-1.58a37.66,37.66,0,0,1-7.11-2,9.8,9.8,0,0,1-3.93-3,6.78,6.78,0,0,1-1.29-4,7.57,7.57,0,0,1,1.58-4.58,9.71,9.71,0,0,1,4.62-3.25,19.83,19.83,0,0,1,6.75-1.1A20.58,20.58,0,0,1,69,11.34a10.27,10.27,0,0,1,4.81,3.41,9.18,9.18,0,0,1,1.81,5.11L71,20.17a6.41,6.41,0,0,0-2.56-4.64C67,14.48,64.85,14,62,14s-5.09.48-6.44,1.43a4.15,4.15,0,0,0-2,3.43A3.52,3.52,0,0,0,55,21.7c1,.75,3.39,1.52,7.35,2.31a53.61,53.61,0,0,1,8.15,2.07,11.08,11.08,0,0,1,4.75,3.3A7.4,7.4,0,0,1,76.75,34a8,8,0,0,1-1.68,4.88,10.82,10.82,0,0,1-4.83,3.56,18.74,18.74,0,0,1-7.09,1.27,23.57,23.57,0,0,1-8.37-1.28,11.5,11.5,0,0,1-5.31-3.86A10,10,0,0,1,47.46,32.73Z"/><rect class="cls-3" y="52.52" width="115.33" height="15.48"/><path class="cls-4" d="M43.69,65.2V55.48h1.05v4h4.11v-4h1V65.2h-1V60.62H44.74V65.2Zm-8.34-3.12,1-.11a3.1,3.1,0,0,0,.36,1.25,2,2,0,0,0,.81.72,2.46,2.46,0,0,0,1.17.27,2.09,2.09,0,0,0,1.45-.46,1.6,1.6,0,0,0,.33-1.94,1.39,1.39,0,0,0-.57-.53,10.3,10.3,0,0,0-1.63-.58,5.89,5.89,0,0,1-1.6-.67,2.36,2.36,0,0,1-.74-.86A2.61,2.61,0,0,1,35.65,58a2.58,2.58,0,0,1,.76-1.93,2.76,2.76,0,0,1,2-.75,3.34,3.34,0,0,1,1.55.35,2.42,2.42,0,0,1,1,1,3.14,3.14,0,0,1,.39,1.54l-1,.09a2.08,2.08,0,0,0-.57-1.4,1.87,1.87,0,0,0-1.36-.46,2.05,2.05,0,0,0-1.35.4,1.29,1.29,0,0,0-.47,1,1.18,1.18,0,0,0,.34.91,4,4,0,0,0,1.54.66,11.94,11.94,0,0,1,1.65.56,2.68,2.68,0,0,1,1.09,1,2.72,2.72,0,0,1,.37,1.45A3,3,0,0,1,41.26,64a2.61,2.61,0,0,1-1.06,1,3.45,3.45,0,0,1-1.61.35,3.13,3.13,0,0,1-2.34-.88A3.42,3.42,0,0,1,35.35,62.08Zm-7.6-.69V60.25H31.1v3.61A6,6,0,0,1,29.51,65a4.08,4.08,0,0,1-1.7.38,3.76,3.76,0,0,1-2.07-.59,3.9,3.9,0,0,1-1.43-1.7,6.15,6.15,0,0,1-.53-2.69,6.74,6.74,0,0,1,.53-2.77,3.83,3.83,0,0,1,1.4-1.74,3.59,3.59,0,0,1,2-.56,3.47,3.47,0,0,1,1.52.32,3,3,0,0,1,1.07.92A4.56,4.56,0,0,1,31,58.2l-.95.32a3.45,3.45,0,0,0-.48-1.23,1.91,1.91,0,0,0-.76-.64,2.34,2.34,0,0,0-1.07-.23,2.55,2.55,0,0,0-1.48.42,2.93,2.93,0,0,0-1,1.31,5.56,5.56,0,0,0-.37,2.17,4.45,4.45,0,0,0,.81,2.91,2.61,2.61,0,0,0,2.1,1,3,3,0,0,0,1.27-.3,3.28,3.28,0,0,0,1-.71V61.39ZM15.39,65.2V55.48h1.07l4.16,7.63V55.48h1V65.2H20.55L16.4,57.56V65.2Zm-3.46,0V55.48H13V65.2Zm43.12-9.72v1.2l0-.18a16.72,16.72,0,0,1-.43,1.86l-.87,2.85h1.34v1H53.4l-.87,2.94H51.42l3-9.72ZM3.7,65.2V55.48h1V60.3l3.93-4.82H10.1L6.78,59.42l3.47,5.78H8.86L6.05,60.28l-1.3,1.55V65.2Zm89.83-9.72h1.06V61.1a7.83,7.83,0,0,1-.28,2.31,2.63,2.63,0,0,1-1,1.43,3,3,0,0,1-1.83.53,2.89,2.89,0,0,1-2.35-.94,5.35,5.35,0,0,1-.78-3.33V55.48h1v5.61A6.21,6.21,0,0,0,89.61,63a1.71,1.71,0,0,0,.67.9,2,2,0,0,0,1.13.31A1.94,1.94,0,0,0,93,63.57a4.22,4.22,0,0,0,.5-2.48ZM82.6,65.2V61.09l-3-5.61h1.28l1.55,2.93q.47.87.81,1.65c.23-.51.52-1.08.86-1.72l1.54-2.86h1.22l-3.16,5.61V65.2Zm-10-3.81V60.25H76v3.61A5.87,5.87,0,0,1,74.37,65a4.08,4.08,0,0,1-1.7.38,3.76,3.76,0,0,1-2.07-.59,3.9,3.9,0,0,1-1.43-1.7,6.15,6.15,0,0,1-.53-2.69,6.74,6.74,0,0,1,.53-2.77,3.89,3.89,0,0,1,1.4-1.74,3.59,3.59,0,0,1,2-.56,3.47,3.47,0,0,1,1.52.32,3,3,0,0,1,1.07.92,4.56,4.56,0,0,1,.64,1.64l-1,.32a3.27,3.27,0,0,0-.48-1.23,1.91,1.91,0,0,0-.76-.64,2.34,2.34,0,0,0-1.07-.23,2.58,2.58,0,0,0-1.48.42,2.85,2.85,0,0,0-1,1.31,5.37,5.37,0,0,0-.38,2.17,4.45,4.45,0,0,0,.81,2.91,2.61,2.61,0,0,0,2.11,1,3,3,0,0,0,1.26-.3,3.28,3.28,0,0,0,1-.71V61.39ZM60.25,65.2V55.48h1.07l4.17,7.63V55.48h1V65.2H65.41l-4.15-7.64V65.2Zm-5.2-2.94v-1h1.34l-.82-2.69c-.23-.73-.4-1.35-.52-1.84v-1.2h.54l3.24,9.72h-1.2l-.92-2.94Zm44.67-6.78v1.2l0-.18a16.72,16.72,0,0,1-.43,1.86l-.87,2.85h1.34v1H98.07L97.2,65.2H96.09l3-9.72Zm5.2,9.72V55.48H106l4.16,7.63V55.48h1V65.2h-1.08l-4.15-7.64V65.2Zm-5.2-2.94v-1h1.34l-.83-2.69c-.22-.73-.39-1.35-.51-1.84v-1.2h.54l3.24,9.72h-1.2l-.92-2.94Z"/><path class="cls-1" d="M107.45,40.8h-1.88v5.49h.71V43.91h.44a3,3,0,0,1,.73.08v-.7h-1.17V41.38h1.17Zm0,8a4.84,4.84,0,0,1-3.58-1.49,5.11,5.11,0,0,1,0-7.21,4.85,4.85,0,0,1,3.58-1.5v.57a4.31,4.31,0,0,0-3.19,1.33,4.58,4.58,0,0,0,0,6.41,4.34,4.34,0,0,0,3.18,1.33Zm0-4.83a.88.88,0,0,1,.31.13,4.45,4.45,0,0,1,.93,1.26l.53.91h.87l-.56-1a6.8,6.8,0,0,0-.44-.66,3.39,3.39,0,0,0-.42-.52,2.24,2.24,0,0,0-.46-.28,2.18,2.18,0,0,0,1.11-.43,1.45,1.45,0,0,0,.52-1.12,1.35,1.35,0,0,0-.5-1.06,2.59,2.59,0,0,0-1.65-.42h-.24v.58a2.26,2.26,0,0,1,1.35.28.91.91,0,0,1,.3.68.89.89,0,0,1-.17.51.81.81,0,0,1-.45.33,4.78,4.78,0,0,1-1,.11Zm5.06-.27A4.94,4.94,0,0,1,111,47.33a4.84,4.84,0,0,1-3.58,1.49v-.56a4.33,4.33,0,0,0,3.18-1.33,4.55,4.55,0,0,0,0-6.41,4.29,4.29,0,0,0-3.18-1.33v-.57a5.09,5.09,0,0,1,5.06,5.1Z"/><polygon class="cls-5" points="140.81 26.5 143.73 26.5 138.16 18.7 143.44 12.5 140.44 12.5 136.28 17.41 134.92 19.06 134.92 12.5 132.45 12.5 132.45 26.5 134.92 26.5 134.92 22.14 136.53 20.45 140.81 26.5"/><rect class="cls-6" x="146.09" y="12.5" width="2.46" height="14"/><polygon class="cls-5" points="163.58 12.5 161.14 12.5 161.14 22.47 154.78 12.5 152.31 12.5 152.31 26.5 154.78 26.5 154.78 16.56 161.11 26.5 163.58 26.5 163.58 12.5"/><path class="cls-5" d="M178,19.5h-5.39v2h2.94v2.3a4.14,4.14,0,0,1-2.7.7,3.27,3.27,0,0,1-2.71-1.19,5.18,5.18,0,0,1-1-3.37v-1a5.54,5.54,0,0,1,.89-3.3,3,3,0,0,1,2.54-1.12,2.72,2.72,0,0,1,3,2.58H178a5.09,5.09,0,0,0-1.68-3.39,5.67,5.67,0,0,0-3.76-1.19,5.48,5.48,0,0,0-4.31,1.73,7,7,0,0,0-1.55,4.83v1.06a7.44,7.44,0,0,0,.78,3.4,5.17,5.17,0,0,0,2.13,2.21,6.21,6.21,0,0,0,3.15.77,9.36,9.36,0,0,0,3.11-.48A4.68,4.68,0,0,0,178,24.59Z"/><path class="cls-5" d="M193.67,24a3.24,3.24,0,0,1-1.92.48,3.81,3.81,0,0,1-2.31-.59,2,2,0,0,1-.8-1.72h-2.47a3.65,3.65,0,0,0,.72,2.25,4.52,4.52,0,0,0,2,1.51,7,7,0,0,0,2.84.55,6.09,6.09,0,0,0,3.69-1,3.23,3.23,0,0,0,1.36-2.73,3.56,3.56,0,0,0-.47-1.83,4.21,4.21,0,0,0-1.47-1.39,11.1,11.1,0,0,0-2.67-1.07,8.35,8.35,0,0,1-2.38-.95,1.4,1.4,0,0,1-.72-1.2,1.61,1.61,0,0,1,.66-1.35,3.27,3.27,0,0,1,1.89-.48,3.08,3.08,0,0,1,2,.58,2,2,0,0,1,.7,1.59h2.47a3.85,3.85,0,0,0-.67-2.15A4.16,4.16,0,0,0,194.3,13a6.55,6.55,0,0,0-2.64-.53A5.77,5.77,0,0,0,188,13.58a3.27,3.27,0,0,0-1.41,2.7,3.45,3.45,0,0,0,1.95,3.06,11.23,11.23,0,0,0,2.74,1.1,8.59,8.59,0,0,1,2.37,1,1.53,1.53,0,0,1,.66,1.32A1.52,1.52,0,0,1,193.67,24Z"/><polygon class="cls-5" points="210.73 12.5 208.28 12.5 208.28 18.5 201.92 18.5 201.92 12.5 199.45 12.5 199.45 26.5 201.92 26.5 201.92 20.5 208.28 20.5 208.28 26.5 210.73 26.5 210.73 12.5"/><path class="cls-5" d="M219.16,15.47l2.06,6h-4.13Zm3.9,11h2.58l-5.37-14h-2.22l-5.38,14h2.58l1.14-3h5.52Z"/><polygon class="cls-5" points="238.58 12.5 236.14 12.5 236.14 22.47 229.78 12.5 227.31 12.5 227.31 26.5 229.78 26.5 229.78 16.56 236.11 26.5 238.58 26.5 238.58 12.5"/><path class="cls-5" d="M253,19.5h-5.39v2h2.94v2.3a4.14,4.14,0,0,1-2.7.7,3.27,3.27,0,0,1-2.71-1.19,5.18,5.18,0,0,1-1-3.37v-1a5.54,5.54,0,0,1,.89-3.3,3,3,0,0,1,2.54-1.12,2.72,2.72,0,0,1,3,2.58H253a5.09,5.09,0,0,0-1.68-3.39,5.67,5.67,0,0,0-3.76-1.19,5.48,5.48,0,0,0-4.31,1.73,7,7,0,0,0-1.55,4.83v1.06a7.44,7.44,0,0,0,.78,3.4,5.17,5.17,0,0,0,2.13,2.21,6.21,6.21,0,0,0,3.15.77,9.36,9.36,0,0,0,3.11-.48A4.68,4.68,0,0,0,253,24.59Z"/><polygon class="cls-5" points="263.31 12.5 260.56 12.5 265.34 21.34 265.34 26.5 267.83 26.5 267.83 21.34 272.59 12.5 269.86 12.5 266.58 19.14 263.31 12.5"/><path class="cls-5" d="M282.38,12.5v9.09c0,1.94-1,2.91-2.86,2.91a2.83,2.83,0,0,1-2.13-.72,2.87,2.87,0,0,1-.72-2.11V12.5H274.2v9.22a4.39,4.39,0,0,0,1.44,3.51,6.51,6.51,0,0,0,7.74,0,4.45,4.45,0,0,0,1.45-3.49V12.5Z"/><path class="cls-5" d="M293.16,15.47l2.06,6h-4.13Zm3.9,11h2.58l-5.37-14h-2.22l-5.38,14h2.58l1.14-3h5.52Z"/><polygon class="cls-5" points="312.58 12.5 310.14 12.5 310.14 22.47 303.78 12.5 301.31 12.5 301.31 26.5 303.78 26.5 303.78 16.56 310.11 26.5 312.58 26.5 312.58 12.5"/><polygon class="cls-5" points="132.45 36.5 132.45 50.5 134.91 50.5 134.91 45.89 134.66 39.72 138.86 50.5 140.63 50.5 144.81 39.72 144.58 45.89 144.58 50.5 147.03 50.5 147.03 36.5 143.84 36.5 139.75 47.23 135.66 36.5 132.45 36.5"/><path class="cls-5" d="M155.16,39.47l2.06,6h-4.13Zm3.9,11h2.58l-5.37-14h-2.22l-5.38,14h2.58l1.14-3h5.52Z"/><path class="cls-5" d="M170.8,45.67a3.4,3.4,0,0,1-.92,2.17,3.2,3.2,0,0,1-2.19.66,2.79,2.79,0,0,1-2.42-1.14,5.58,5.58,0,0,1-.82-3.31V42.86a5.22,5.22,0,0,1,.88-3.25,2.92,2.92,0,0,1,2.48-1.11,3,3,0,0,1,2.1.67,3.63,3.63,0,0,1,.89,2.22h2.47a5.31,5.31,0,0,0-1.68-3.61,5.52,5.52,0,0,0-3.78-1.28,5.93,5.93,0,0,0-3.09.8,5.23,5.23,0,0,0-2.05,2.26A7.78,7.78,0,0,0,162,43v1.28a7.46,7.46,0,0,0,.73,3.3,5.13,5.13,0,0,0,2,2.2,6.41,6.41,0,0,0,6.89-.51,5.23,5.23,0,0,0,1.69-3.55Z"/><polygon class="cls-5" points="186.23 36.5 183.78 36.5 183.78 42.5 177.42 42.5 177.42 36.5 174.95 36.5 174.95 50.5 177.42 50.5 177.42 44.5 183.78 44.5 183.78 50.5 186.23 50.5 186.23 36.5"/><rect class="cls-6" x="188.59" y="36.5" width="2.46" height="14"/><polygon class="cls-5" points="205.08 36.5 202.64 36.5 202.64 46.47 196.28 36.5 193.81 36.5 193.81 50.5 196.28 50.5 196.28 40.56 202.61 50.5 205.08 50.5 205.08 36.5"/><polygon class="cls-5" points="215.75 42.5 209.92 42.5 209.92 38.5 216.67 38.5 216.67 36.5 207.45 36.5 207.45 50.5 216.75 50.5 216.75 48.5 209.92 48.5 209.92 44.5 215.75 44.5 215.75 42.5"/><path class="cls-5" d="M220.19,38.5h2.61a2.69,2.69,0,0,1,1.92.67,2.52,2.52,0,0,1,.66,1.86,2.34,2.34,0,0,1-.71,1.81,2.74,2.74,0,0,1-1.95.66h-2.53Zm5.58,12h2.65v-.11l-3.2-5.47a4.46,4.46,0,0,0,1.92-1.51,4.31,4.31,0,0,0,.69-2.47,4.09,4.09,0,0,0-1.35-3.3,5.71,5.71,0,0,0-3.78-1.14h-5v14h2.47v-5h2.75Z"/><polygon class="cls-5" points="230.81 36.5 228.06 36.5 232.84 45.34 232.84 50.5 235.33 50.5 235.33 45.34 240.09 36.5 237.36 36.5 234.08 43.14 230.81 36.5"/><path class="cls-5" d="M253.8,45.67a3.4,3.4,0,0,1-.92,2.17,3.2,3.2,0,0,1-2.19.66,2.79,2.79,0,0,1-2.42-1.14,5.58,5.58,0,0,1-.82-3.31V42.86a5.22,5.22,0,0,1,.88-3.25,2.92,2.92,0,0,1,2.48-1.11,3,3,0,0,1,2.1.67,3.63,3.63,0,0,1,.89,2.22h2.47a5.31,5.31,0,0,0-1.68-3.61,5.52,5.52,0,0,0-3.78-1.28,5.93,5.93,0,0,0-3.09.8,5.23,5.23,0,0,0-2.05,2.26A7.78,7.78,0,0,0,245,43v1.28a7.46,7.46,0,0,0,.73,3.3,5.13,5.13,0,0,0,2,2.2,6.41,6.41,0,0,0,6.89-.51,5.23,5.23,0,0,0,1.69-3.55Z"/><path class="cls-5" d="M266.94,43.84a5.71,5.71,0,0,1-.89,3.47,2.94,2.94,0,0,1-2.52,1.19A3,3,0,0,1,261,47.28a5.68,5.68,0,0,1-.9-3.44v-.78A5.43,5.43,0,0,1,261,39.7a3.24,3.24,0,0,1,5,0,5.64,5.64,0,0,1,.91,3.44Zm2.45-.75a8,8,0,0,0-.75-3.48,5.44,5.44,0,0,0-2.08-2.31,6.28,6.28,0,0,0-6.15,0,5.3,5.3,0,0,0-2.08,2.35,7.8,7.8,0,0,0-.74,3.5v.78a7.58,7.58,0,0,0,.74,3.45,5.37,5.37,0,0,0,2.09,2.3,6,6,0,0,0,3.1.81,5.84,5.84,0,0,0,3.07-.81,5.38,5.38,0,0,0,2.07-2.32,8,8,0,0,0,.73-3.51Z"/><path class="cls-5" d="M270.86,47.94a1.75,1.75,0,0,0,0,2.15,1.26,1.26,0,0,0,1,.41,1.28,1.28,0,0,0,1-.42,1.62,1.62,0,0,0,.36-1.06,1.65,1.65,0,0,0-.36-1.08,1.3,1.3,0,0,0-1-.44A1.32,1.32,0,0,0,270.86,47.94Z"/><path class="cls-5" d="M276.17,51.3a4.8,4.8,0,0,0,.53-2.1V47.5h-2.14v1.84a4.39,4.39,0,0,1-.22,1.35,7.2,7.2,0,0,1-.76,1.54l1.26.77A5.35,5.35,0,0,0,276.17,51.3Z"/><polygon class="cls-5" points="283.42 36.5 280.95 36.5 280.95 50.5 289.88 50.5 289.88 48.5 283.42 48.5 283.42 36.5"/><polygon class="cls-5" points="301.72 36.5 290.44 36.5 290.44 38.5 294.83 38.5 294.83 50.5 297.28 50.5 297.28 38.5 301.72 38.5 301.72 36.5"/><path class="cls-5" d="M307.11,38.5A3.64,3.64,0,0,1,310,39.69a5.22,5.22,0,0,1,1,3.45v.77a5.16,5.16,0,0,1-1.08,3.4,3.72,3.72,0,0,1-3,1.19h-1.61v-10Zm-.11,12a7.08,7.08,0,0,0,3.42-.81,5.63,5.63,0,0,0,2.28-2.33,7.38,7.38,0,0,0,.82-3.5v-.7a7.42,7.42,0,0,0-.8-3.49,5.81,5.81,0,0,0-2.27-2.34,6.67,6.67,0,0,0-3.34-.83h-4.19v14Z"/><path class="cls-5" d="M314.86,47.94a1.75,1.75,0,0,0,0,2.15,1.26,1.26,0,0,0,1,.41,1.28,1.28,0,0,0,1-.42,1.62,1.62,0,0,0,.36-1.06,1.65,1.65,0,0,0-.36-1.08,1.3,1.3,0,0,0-1-.44A1.32,1.32,0,0,0,314.86,47.94Z"/></g></g></svg>